<?xml version="1.0" standalone="no"?>
<!DOCTYPE svg PUBLIC "-//W3C//DTD SVG 20010904//EN"
 "http://www.w3.org/TR/2001/REC-SVG-20010904/DTD/svg10.dtd">
<svg version="1.0" xmlns="http://www.w3.org/2000/svg"
 width="1772.000000pt" height="676.000000pt" viewBox="0 0 1772.000000 676.000000"
 preserveAspectRatio="xMidYMid meet">
<metadata>
Created by potrace 1.16, written by Peter Selinger 2001-2019
</metadata>
<g transform="translate(0.000000,676.000000) scale(0.100000,-0.100000)"
fill="#000000" stroke="none">
<path d="M12235 6745 c-429 -69 -800 -274 -1061 -588 -209 -250 -301 -499
-344 -932 -17 -164 -25 -1351 -11 -1640 21 -440 62 -647 176 -880 165 -335
518 -636 910 -775 369 -130 796 -134 1175 -10 130 42 336 146 449 228 192 137
390 353 488 533 86 158 139 323 175 544 18 116 21 186 25 641 5 510 5 512 -16
533 l-21 21 -820 0 c-807 0 -820 0 -840 -20 -19 -19 -20 -33 -20 -215 0 -182
1 -196 20 -215 20 -20 33 -20 598 -20 l577 0 -6 -312 c-6 -303 -12 -368 -44
-491 -131 -504 -590 -846 -1135 -847 -326 0 -627 124 -842 348 -213 222 -282
418 -320 912 -17 223 -17 1246 0 1470 38 495 112 699 332 921 221 223 505 339
828 339 339 0 615 -109 832 -329 141 -142 231 -296 304 -521 l42 -125 241 -3
242 -2 16 23 c13 21 13 32 -9 123 -164 671 -628 1132 -1280 1270 -104 22 -152
26 -346 30 -163 2 -250 -1 -315 -11z"/>
<path d="M6529 6704 c-100 -18 -175 -46 -247 -94 -130 -87 -206 -243 -219
-454 l-6 -99 94 6 c356 24 535 204 565 570 l7 87 -59 -1 c-33 0 -93 -7 -135
-15z"/>
<path d="M8478 6703 c-8 -10 -22 -38 -31 -63 -8 -25 -164 -450 -347 -945 -314
-854 -966 -2624 -1256 -3414 -128 -347 -133 -365 -119 -388 l16 -24 244 3
c229 3 246 4 264 23 11 11 54 117 95 235 42 118 125 352 184 520 l108 305
1059 0 1059 0 67 -190 c37 -104 118 -331 179 -504 61 -172 118 -327 126 -343
8 -16 26 -33 40 -38 14 -6 128 -10 254 -10 l230 0 15 24 c16 25 3 63 -1085
3026 -199 541 -419 1143 -542 1480 -55 151 -106 285 -114 298 -14 22 -18 22
-223 22 -186 0 -210 -2 -223 -17z m653 -1948 c231 -660 431 -1230 444 -1267
l24 -68 -901 0 c-761 0 -899 2 -895 14 3 7 56 155 117 327 474 1331 784 2198
787 2196 1 -2 192 -543 424 -1202z"/>
<path d="M14412 6708 c-9 -9 -12 -71 -12 -219 0 -175 2 -210 16 -223 14 -14
91 -16 700 -16 l684 0 0 -2174 c0 -1964 2 -2176 16 -2190 13 -14 50 -16 248
-16 167 0 235 3 244 12 9 9 12 509 12 2190 l0 2178 681 0 c450 0 687 4 700 10
18 10 19 23 19 223 0 152 -3 216 -12 225 -17 17 -3279 17 -3296 0z"/>
<path d="M5600 6674 c-250 -55 -389 -228 -407 -506 l-6 -98 69 0 c154 1 315
60 404 150 89 88 150 254 150 406 l0 64 -72 -1 c-40 -1 -102 -7 -138 -15z"/>
<path d="M4868 6580 c-143 -17 -253 -64 -328 -139 -84 -84 -140 -240 -140
-388 l0 -65 83 7 c227 20 367 102 441 259 42 89 58 158 60 255 1 88 5 85 -116
71z"/>
<path d="M4024 6390 c-223 -58 -330 -199 -351 -462 l-6 -78 35 0 c70 0 214 31
275 60 84 39 156 108 193 185 35 72 60 183 60 261 l0 54 -67 -1 c-38 0 -100
-9 -139 -19z"/>
<path d="M3399 6169 c-117 -17 -224 -70 -284 -141 -58 -69 -104 -212 -105
-325 l0 -53 39 0 c67 0 192 28 255 58 139 65 211 192 231 405 l7 67 -44 -1
c-24 -1 -68 -5 -99 -10z"/>
<path d="M2733 5865 c-78 -17 -174 -68 -213 -112 -64 -72 -109 -204 -110 -315
l0 -48 49 0 c117 0 238 41 310 106 80 72 131 200 131 329 l0 55 -52 -1 c-29 0
-81 -7 -115 -14z"/>
<path d="M6485 5795 c-132 -29 -217 -75 -286 -153 -77 -88 -129 -240 -129
-381 l0 -71 60 0 c129 0 275 46 371 115 102 76 176 237 186 413 l6 92 -74 -1
c-41 0 -101 -7 -134 -14z"/>
<path d="M5615 5775 c-137 -26 -217 -66 -288 -145 -79 -88 -122 -206 -129
-355 l-3 -70 73 -3 c135 -5 302 58 383 145 77 84 139 264 139 404 l0 39 -52
-1 c-29 0 -84 -7 -123 -14z"/>
<path d="M4860 5684 c-157 -24 -244 -59 -318 -128 -82 -77 -142 -233 -142
-370 l0 -56 63 0 c77 0 196 29 267 65 132 67 210 210 227 418 l6 77 -39 -1
c-21 -1 -50 -3 -64 -5z"/>
<path d="M2182 5505 c-193 -42 -282 -153 -308 -384 l-7 -64 81 6 c238 18 364
143 379 375 l6 82 -44 -1 c-24 0 -73 -7 -107 -14z"/>
<path d="M4062 5510 c-77 -12 -173 -48 -225 -86 -92 -67 -153 -198 -164 -352
l-6 -85 80 7 c284 23 432 174 445 451 l3 70 -40 1 c-22 1 -64 -2 -93 -6z"/>
<path d="M3385 5280 c-180 -24 -295 -109 -346 -258 -20 -57 -41 -209 -31 -226
5 -10 115 0 182 16 68 17 151 62 192 105 65 67 118 220 118 342 0 35 -3 35
-115 21z"/>
<path d="M1720 5083 c-14 -2 -54 -14 -90 -26 -129 -44 -206 -156 -217 -319 -7
-90 -12 -86 107 -68 189 30 294 147 307 343 l6 77 -44 -1 c-24 -1 -55 -4 -69
-6z"/>
<path d="M2715 4975 c-177 -38 -267 -135 -301 -323 -23 -133 -27 -126 64 -119
197 15 310 97 362 264 11 36 20 93 20 129 l0 64 -42 -1 c-24 0 -70 -7 -103
-14z"/>
<path d="M6400 4975 c-256 -51 -382 -204 -406 -492 l-7 -83 70 0 c82 0 207 30
280 66 100 51 178 148 214 264 19 65 40 224 31 248 -5 16 -95 14 -182 -3z"/>
<path d="M5506 4945 c-195 -40 -316 -156 -361 -347 -8 -35 -15 -93 -15 -130
l0 -68 53 0 c138 1 305 66 378 148 71 80 115 202 121 342 l3 65 -55 2 c-30 1
-86 -5 -124 -12z"/>
<path d="M4695 4844 c-95 -19 -205 -74 -250 -126 -67 -79 -115 -222 -115 -344
l0 -44 48 0 c70 0 177 26 248 59 139 65 210 187 229 394 l7 77 -48 -1 c-27 0
-80 -7 -119 -15z"/>
<path d="M3913 4670 c-127 -33 -207 -91 -253 -180 -29 -56 -60 -182 -60 -242
l0 -48 61 0 c166 0 313 81 378 209 28 55 51 154 51 224 l0 57 -52 -1 c-29 0
-85 -9 -125 -19z"/>
<path d="M2113 4599 c-143 -45 -223 -156 -240 -331 l-6 -71 79 5 c144 11 242
66 297 167 28 51 57 160 57 219 l0 32 -62 -1 c-35 0 -91 -9 -125 -20z"/>
<path d="M1283 4579 c-63 -12 -134 -46 -171 -82 -59 -56 -102 -168 -102 -264
l0 -36 78 5 c102 6 169 36 227 100 52 58 85 149 85 234 l0 54 -37 -1 c-21 -1
-57 -5 -80 -10z"/>
<path d="M3249 4445 c-197 -39 -309 -180 -309 -389 l0 -59 78 6 c175 12 299
98 347 242 10 28 20 87 22 133 l6 82 -39 -1 c-22 0 -69 -7 -105 -14z"/>
<path d="M6220 4214 c-225 -48 -356 -216 -363 -466 l-2 -73 74 3 c199 7 360
99 426 245 30 65 55 180 55 253 l0 54 -62 -1 c-35 0 -92 -7 -128 -15z"/>
<path d="M5382 4189 c-129 -19 -241 -79 -301 -163 -45 -63 -80 -170 -87 -272
l-7 -84 47 0 c73 0 194 29 258 61 137 69 212 204 220 394 l3 70 -35 1 c-19 1
-63 -2 -98 -7z"/>
<path d="M2620 4146 c-172 -39 -266 -153 -278 -338 l-5 -78 34 0 c60 0 168 28
220 57 101 54 156 153 166 296 l6 77 -44 -1 c-24 0 -69 -6 -99 -13z"/>
<path d="M4503 4075 c-74 -20 -146 -59 -188 -100 -68 -68 -115 -196 -115 -312
l0 -63 43 0 c57 0 166 24 221 49 62 27 141 103 171 165 28 58 55 170 55 234
l0 42 -67 -1 c-38 0 -92 -7 -120 -14z"/>
<path d="M1802 4045 c-159 -35 -252 -149 -255 -315 l-2 -65 55 3 c206 12 330
138 330 336 l0 56 -32 -1 c-18 0 -62 -7 -96 -14z"/>
<path d="M924 4010 c-142 -28 -224 -125 -240 -286 l-7 -67 71 6 c173 14 275
115 289 287 l6 70 -39 -1 c-21 -1 -58 -5 -80 -9z"/>
<path d="M3803 3919 c-126 -21 -225 -83 -278 -173 -31 -54 -55 -150 -55 -220
l0 -56 58 0 c161 0 312 93 361 224 21 58 45 200 37 222 -6 16 -42 17 -123 3z"/>
<path d="M3047 3670 c-96 -30 -154 -76 -193 -152 -28 -55 -54 -156 -54 -212
l0 -39 78 6 c142 10 248 69 298 169 27 53 54 160 54 216 l0 32 -62 -1 c-35 0
-89 -8 -121 -19z"/>
<path d="M6055 3530 c-228 -34 -345 -141 -389 -352 -9 -42 -16 -98 -16 -124
l0 -47 85 7 c210 16 342 104 404 270 22 61 47 216 38 240 -7 17 -37 19 -122 6z"/>
<path d="M2350 3519 c-164 -27 -259 -137 -277 -321 l-6 -71 62 7 c132 15 221
59 270 133 40 60 61 131 61 205 0 66 2 65 -110 47z"/>
<path d="M5143 3489 c-28 -5 -77 -18 -110 -30 -80 -30 -171 -122 -201 -201
-23 -60 -42 -160 -42 -217 l0 -34 88 5 c190 12 312 95 371 254 21 54 45 210
35 225 -6 11 -70 10 -141 -2z"/>
<path d="M1488 3406 c-131 -35 -208 -148 -208 -302 l0 -46 53 7 c104 13 159
36 214 91 55 55 75 102 88 208 l7 56 -53 -1 c-30 0 -75 -6 -101 -13z"/>
<path d="M4340 3388 c-209 -27 -339 -178 -340 -392 l0 -59 83 6 c116 8 189 38
258 107 39 39 62 72 77 113 23 60 46 184 40 214 -4 19 -35 22 -118 11z"/>
<path d="M638 3376 c-131 -28 -205 -114 -216 -252 l-5 -67 60 5 c163 15 263
122 263 280 0 55 -2 56 -102 34z"/>
<path d="M3550 3216 c-170 -37 -266 -153 -278 -338 l-5 -78 34 0 c60 0 168 28
220 57 101 54 156 153 166 296 l6 77 -44 -1 c-24 0 -69 -6 -99 -13z"/>
<path d="M2915 2993 c-65 -6 -158 -41 -198 -74 -20 -17 -48 -50 -62 -74 -26
-44 -55 -155 -55 -214 l0 -34 66 7 c202 21 311 128 322 317 4 73 3 79 -14 77
-11 -1 -37 -3 -59 -5z"/>
<path d="M5690 2882 c-189 -50 -299 -202 -300 -416 l0 -59 78 7 c254 21 387
156 409 413 l6 73 -64 -1 c-35 0 -93 -8 -129 -17z"/>
<path d="M4809 2845 c-145 -39 -225 -123 -264 -272 -8 -31 -15 -83 -15 -114
l0 -56 58 4 c172 12 288 76 346 192 25 49 56 177 56 231 l0 30 -67 -1 c-38 0
-89 -7 -114 -14z"/>
<path d="M2104 2816 c-141 -34 -213 -124 -231 -288 l-6 -58 50 0 c65 0 138 22
196 61 63 42 108 130 115 229 l5 70 -39 -1 c-22 0 -62 -6 -90 -13z"/>
<path d="M3973 2739 c-73 -23 -137 -69 -176 -126 -30 -46 -67 -174 -67 -236
l0 -40 78 6 c142 10 241 65 295 166 28 51 57 160 57 219 l0 32 -62 -1 c-35 0
-91 -9 -125 -20z"/>
<path d="M1298 2716 c-131 -28 -205 -114 -215 -250 l-6 -66 38 0 c21 0 66 8
99 17 113 32 179 123 188 263 3 42 1 45 -22 47 -14 1 -50 -4 -82 -11z"/>
<path d="M405 2681 c-113 -28 -168 -94 -184 -223 l-7 -58 47 0 c53 0 117 20
159 50 39 27 80 115 87 184 l6 56 -39 -1 c-21 -1 -52 -4 -69 -8z"/>
<path d="M3430 2459 c-179 -23 -276 -131 -297 -328 l-6 -64 64 6 c213 21 323
132 332 337 2 63 4 62 -93 49z"/>
<path d="M5339 2316 c-66 -19 -146 -64 -181 -105 -59 -68 -98 -183 -98 -293
l0 -50 68 7 c245 26 364 144 388 385 l7 70 -69 -1 c-38 0 -90 -7 -115 -13z"/>
<path d="M4510 2293 c-189 -31 -295 -151 -308 -345 l-5 -78 34 0 c60 0 168 28
220 57 101 54 156 153 166 296 l6 77 -44 -1 c-24 -1 -55 -4 -69 -6z"/>
<path d="M2676 2214 c-129 -40 -206 -151 -206 -297 l0 -50 61 7 c181 21 274
114 295 295 l7 61 -54 -1 c-30 0 -76 -7 -103 -15z"/>
<path d="M1982 2060 c-76 -11 -154 -53 -186 -99 -33 -48 -56 -120 -56 -178 l0
-43 45 0 c66 0 153 34 197 77 45 44 74 116 79 193 4 62 5 62 -79 50z"/>
<path d="M1110 1947 c-55 -18 -94 -46 -120 -83 -25 -37 -50 -120 -50 -166 0
-26 3 -28 38 -28 141 0 238 90 257 238 l7 52 -49 -1 c-26 0 -64 -6 -83 -12z"/>
<path d="M3966 1929 c-180 -19 -280 -127 -301 -323 l-7 -69 71 7 c180 16 282
101 316 262 18 85 19 121 3 126 -7 2 -44 1 -82 -3z"/>
<path d="M240 1923 c-104 -36 -148 -90 -157 -194 l-6 -62 51 7 c127 17 188 79
207 209 l7 47 -43 -1 c-24 0 -51 -3 -59 -6z"/>
<path d="M4903 1809 c-145 -46 -221 -151 -239 -333 l-7 -69 79 5 c144 11 249
70 300 170 27 53 54 160 54 216 l0 32 -62 -1 c-35 0 -91 -9 -125 -20z"/>
<path d="M3313 1629 c-149 -29 -229 -122 -248 -286 l-7 -63 50 0 c68 0 163 31
211 69 55 44 91 124 98 217 l6 74 -34 -1 c-19 -1 -53 -5 -76 -10z"/>
<path d="M2639 1400 c-147 -25 -239 -132 -239 -277 l0 -43 43 0 c104 0 205 57
247 141 21 39 44 164 35 180 -7 10 -20 10 -86 -1z"/>
<path d="M4430 1386 c-147 -41 -214 -132 -234 -320 l-7 -59 70 7 c133 12 237
70 282 158 22 44 49 149 49 196 l0 32 -57 -1 c-32 0 -78 -6 -103 -13z"/>
<path d="M1873 1229 c-127 -25 -203 -119 -203 -252 l0 -40 50 7 c150 20 227
95 238 233 5 71 6 71 -85 52z"/>
<path d="M1065 1130 c-116 -17 -174 -80 -191 -210 l-7 -53 44 7 c152 24 210
83 221 225 3 40 0 41 -67 31z"/>
<path d="M126 1095 c-21 -7 -51 -26 -67 -41 -29 -28 -59 -105 -59 -152 0 -24
2 -24 52 -18 28 4 63 13 78 21 57 30 100 105 100 178 0 24 -4 27 -32 27 -18
-1 -50 -7 -72 -15z"/>
<path d="M3887 1029 c-132 -31 -212 -131 -224 -281 l-6 -71 59 6 c84 9 126 23
181 60 63 42 110 132 119 230 l7 67 -49 -1 c-27 -1 -66 -5 -87 -10z"/>
<path d="M3232 721 c-98 -34 -158 -118 -169 -237 l-6 -64 45 0 c25 0 66 6 92
14 116 35 170 108 191 259 l6 47 -53 0 c-29 -1 -77 -9 -106 -19z"/>
<path d="M2561 491 c-29 -10 -65 -27 -79 -38 -40 -30 -75 -106 -80 -174 l-4
-59 45 0 c52 0 116 20 158 51 41 29 78 107 86 179 l6 60 -39 0 c-21 -1 -63 -9
-93 -19z"/>
<path d="M1850 330 c-56 -12 -85 -26 -118 -60 -33 -32 -62 -110 -62 -163 l0
-30 60 6 c119 10 188 82 198 204 5 59 2 60 -78 43z"/>
<path d="M1018 220 c-78 -24 -124 -81 -135 -170 -6 -48 -5 -50 19 -50 47 0
124 30 151 58 28 29 57 105 57 149 0 20 -5 23 -32 22 -18 0 -45 -4 -60 -9z"/>
<path d="M160 203 c-86 -13 -135 -63 -147 -148 l-6 -48 47 6 c62 9 99 32 124
76 22 40 33 113 17 116 -5 1 -21 0 -35 -2z"/>
</g>
</svg>
