<?xml version="1.0" standalone="no"?>
<!DOCTYPE svg PUBLIC "-//W3C//DTD SVG 20010904//EN"
 "http://www.w3.org/TR/2001/REC-SVG-20010904/DTD/svg10.dtd">
<svg version="1.0" xmlns="http://www.w3.org/2000/svg"
 width="300.000000pt" height="300.000000pt" viewBox="0 0 300.000000 300.000000"
 preserveAspectRatio="xMidYMid meet">

<g transform="translate(0.000000,300.000000) scale(0.100000,-0.100000)"
fill="#000000" stroke="none">
<path d="M1363 2649 c-458 -53 -843 -376 -977 -819 -35 -117 -46 -196 -46
-330 0 -140 11 -214 51 -345 93 -303 306 -550 594 -690 207 -101 414 -139 631
-116 519 56 919 420 1025 933 27 132 22 356 -10 486 -120 480 -515 826 -1006
882 -102 11 -159 11 -262 -1z m97 -344 l0 -265 -195 0 c-112 0 -195 4 -195 9
0 18 62 186 87 236 58 115 143 214 223 259 84 48 80 61 80 -239z m151 244 c82
-41 170 -141 231 -264 25 -49 88 -218 88 -236 0 -5 -83 -9 -195 -9 l-195 0 0
265 c0 296 -4 283 71 244z m-403 -44 c-71 -73 -159 -247 -205 -402 l-18 -63
-207 0 c-115 0 -208 4 -208 8 0 23 106 156 181 227 92 88 157 134 266 189 74
37 214 88 222 81 2 -3 -12 -21 -31 -40z m712 -13 c144 -61 248 -132 356 -244
62 -64 154 -183 154 -199 0 -5 -93 -9 -208 -9 l-207 0 -18 64 c-45 154 -138
335 -206 400 -17 17 -31 33 -31 37 0 11 66 -9 160 -49z m-960 -549 c0 -10 -7
-56 -14 -104 -8 -47 -18 -133 -22 -192 l-7 -107 -250 0 -250 0 7 80 c7 81 43
222 76 298 l19 42 220 0 c204 0 221 -1 221 -17z m500 -193 l0 -210 -230 0
-230 0 0 45 c0 83 29 312 45 363 3 9 54 12 210 12 l205 0 0 -210z m512 105 c9
-55 20 -148 23 -207 l8 -108 -232 0 -231 0 0 210 0 210 208 -2 207 -3 17 -100z
m535 40 c34 -86 61 -200 69 -283 l7 -72 -250 0 -250 0 -8 103 c-4 56 -13 144
-21 196 -8 52 -14 100 -14 108 0 11 40 13 222 11 l222 -3 23 -60z m-1583 -542
c4 -59 14 -145 22 -192 7 -48 14 -94 14 -103 0 -17 -17 -18 -221 -18 l-220 0
-19 43 c-33 75 -69 216 -76 297 l-7 80 250 0 250 0 7 -107z m536 -103 l0 -210
-207 2 -207 3 -8 35 c-12 56 -38 280 -38 332 l0 48 230 0 230 0 0 -210z m535
103 c-3 -60 -14 -153 -23 -208 l-17 -100 -207 -3 -208 -2 0 210 0 210 231 0
232 0 -8 -107z m582 35 c-7 -82 -37 -203 -71 -286 l-22 -57 -222 -3 c-182 -2
-222 0 -222 11 0 8 6 56 14 108 8 52 17 140 21 197 l8 102 250 0 250 0 -6 -72z
m-1574 -492 c44 -150 132 -323 207 -405 17 -18 30 -35 28 -37 -7 -6 -151 47
-219 81 -130 64 -240 149 -337 260 -56 63 -112 142 -112 157 0 4 93 8 208 8
l207 0 18 -64z m457 -201 c0 -296 4 -283 -71 -245 -80 41 -173 147 -232 265
-25 50 -87 218 -87 236 0 5 83 9 195 9 l195 0 0 -265z m470 257 c0 -5 -11 -40
-24 -78 -73 -212 -179 -364 -295 -423 -75 -39 -71 -52 -71 244 l0 265 195 0
c107 0 195 -4 195 -8z m500 0 c0 -23 -106 -156 -181 -227 -99 -95 -167 -141
-292 -200 -94 -44 -197 -79 -197 -67 0 4 12 18 26 31 66 63 156 234 200 379
l29 92 207 0 c115 0 208 -4 208 -8z"/>
</g>
</svg>
