<?xml version="1.0" standalone="no"?>
<!DOCTYPE svg PUBLIC "-//W3C//DTD SVG 20010904//EN"
 "http://www.w3.org/TR/2001/REC-SVG-20010904/DTD/svg10.dtd">
<svg version="1.0" xmlns="http://www.w3.org/2000/svg"
 width="2964.000000pt" height="726.000000pt" viewBox="0 0 2964.000000 726.000000"
 preserveAspectRatio="xMidYMid meet">
<metadata>
Created by potrace 1.16, written by Peter Selinger 2001-2019
</metadata>
<g transform="translate(0.000000,726.000000) scale(0.100000,-0.100000)"
fill="#000000" stroke="none">
<path d="M25920 7250 c-249 -15 -509 -58 -744 -125 -189 -53 -189 -51 -1 -58
524 -18 1109 -224 1656 -582 267 -175 488 -354 743 -605 762 -747 1298 -1704
1502 -2677 65 -310 79 -450 79 -798 0 -300 -6 -382 -42 -579 -5 -30 -5 -30 10
-10 9 11 47 81 86 155 207 396 338 821 397 1284 23 174 26 632 6 800 -73 619
-262 1146 -587 1635 -231 348 -493 625 -820 870 -185 139 -332 229 -550 335
-445 219 -856 327 -1350 355 -184 11 -198 11 -385 0z"/>
<path d="M23157 5713 c-683 -974 -859 -2197 -477 -3318 390 -1142 1316 -1996
2485 -2289 429 -107 958 -127 1408 -51 130 22 437 99 407 103 -148 17 -331 48
-445 76 -913 226 -1832 905 -2507 1853 -767 1077 -1103 2340 -893 3358 23 111
67 269 94 339 6 16 10 30 8 33 -2 2 -38 -45 -80 -104z"/>
<path d="M27491 5384 c-225 -60 -362 -265 -322 -481 40 -215 227 -356 476
-357 106 0 177 15 262 56 63 31 163 123 163 151 0 32 -208 318 -393 540 -98
117 -96 115 -186 91z"/>
<path d="M25016 4928 c-34 -82 -181 -420 -660 -1516 -190 -437 -346 -799 -346
-805 0 -39 203 -357 345 -540 l76 -98 77 3 77 3 114 288 114 287 625 -2 625
-3 114 -287 115 -288 434 0 c239 0 434 2 434 4 0 3 -45 107 -100 233 -55 125
-349 796 -653 1490 l-552 1263 -412 0 -413 0 -14 -32z m568 -1179 l143 -364
59 -18 c32 -10 185 -56 339 -102 l280 -84 -673 0 c-370 -1 -671 3 -668 7 3 4
79 197 169 428 205 521 199 506 204 501 2 -3 68 -168 147 -368z"/>
<path d="M20670 4844 c-195 -27 -362 -80 -505 -163 -96 -56 -263 -217 -314
-304 -169 -288 -137 -689 72 -905 83 -86 272 -197 437 -257 41 -14 190 -53
330 -86 425 -99 513 -130 585 -210 79 -88 46 -211 -75 -274 -16 -8 -60 -23
-97 -32 -96 -24 -374 -23 -498 1 -206 40 -407 110 -559 196 -49 27 -91 49 -92
47 -2 -2 -43 -89 -91 -193 -86 -187 -87 -190 -87 -269 -1 -92 20 -143 76 -190
96 -81 465 -188 733 -213 155 -14 522 -7 630 12 294 53 463 134 635 306 116
115 167 196 212 340 20 66 23 95 23 230 -1 141 -3 162 -28 236 -57 172 -194
327 -360 407 -179 87 -462 173 -732 222 -313 57 -446 136 -445 267 0 41 30
108 61 137 74 70 181 96 394 95 186 -1 297 -20 477 -84 74 -26 130 -40 163
-40 58 0 137 34 174 73 22 24 181 394 181 421 0 19 -177 103 -309 146 -123 41
-277 73 -426 90 -126 14 -440 11 -565 -6z"/>
<path d="M1219 4789 c-36 -69 -1215 -2750 -1210 -2753 3 -2 184 -3 401 -2
l395 1 107 265 106 265 589 2 588 3 106 -268 107 -267 407 -3 407 -3 -5 23
c-4 13 -118 275 -255 583 -136 308 -410 923 -607 1368 l-358 807 -383 0 c-381
0 -383 0 -395 -21z m525 -1105 l137 -341 305 -89 c168 -49 301 -90 297 -91 -5
-2 -282 -4 -616 -6 -549 -2 -608 0 -604 14 8 29 339 860 342 857 2 -2 64 -156
139 -344z"/>
<path d="M2980 4575 c0 -214 2 -239 19 -274 27 -51 83 -98 128 -108 21 -4 41
-8 46 -9 4 -1 153 -2 332 -3 l325 -1 0 -990 c0 -1083 -3 -1025 60 -1088 67
-68 62 -67 410 -67 l315 0 0 949 0 948 -207 121 c-115 67 -208 124 -208 127 0
3 283 4 630 2 l630 -3 0 316 0 315 -1240 0 -1240 0 0 -235z"/>
<path d="M5760 3511 c0 -954 3 -1307 12 -1332 18 -53 45 -87 96 -116 l47 -28
315 0 315 0 3 543 2 542 530 0 530 0 1 -412 c1 -545 -2 -525 70 -603 66 -71
92 -76 435 -73 l289 3 3 1280 c1 806 -2 1300 -8 1333 -12 66 -40 106 -93 135
-41 21 -50 22 -367 22 l-325 0 -3 -514 c-1 -283 -4 -516 -6 -518 -1 -2 -337
-2 -746 -1 l-743 3 214 85 214 86 0 355 0 355 -28 42 c-33 51 -87 88 -147 101
-25 6 -172 11 -327 11 l-283 0 0 -1299z"/>
<path d="M8702 3423 l3 -1388 1053 -3 1052 -2 0 232 c0 258 -5 283 -68 341
-60 57 -40 56 -886 57 -429 0 -781 2 -783 4 -2 2 91 64 206 137 l211 133 0
834 c0 629 -3 845 -12 876 -8 25 -31 59 -59 88 -73 73 -100 78 -436 78 l-283
0 2 -1387z"/>
<path d="M11114 4797 c-2 -7 -3 -568 -2 -1247 3 -1147 4 -1238 20 -1279 39
-95 118 -174 218 -217 43 -18 84 -19 1018 -21 l972 -3 0 305 0 305 -725 0
-725 0 0 255 0 255 620 0 620 0 -2 293 -3 292 -617 3 -618 2 0 113 0 114 -237
116 -238 116 938 1 937 0 0 305 0 305 -1085 0 c-878 0 -1087 -2 -1091 -13z"/>
<path d="M13642 4573 l3 -238 28 -47 c29 -50 89 -93 142 -102 17 -2 175 -5
352 -5 l323 -1 2 -992 3 -993 22 -42 c29 -53 84 -98 136 -112 23 -5 168 -10
334 -11 l293 -1 0 953 -1 953 -204 119 c-113 65 -205 121 -205 125 0 3 273 5
607 3 335 -1 618 0 631 3 l22 5 0 310 0 310 -1246 0 -1245 0 3 -237z"/>
<path d="M16432 3553 l3 -1258 22 -47 c27 -59 94 -132 152 -166 88 -51 94 -52
1106 -49 l940 2 3 303 2 302 -725 0 -724 0 -3 245 c-2 135 -1 250 0 255 2 6
220 10 618 10 l614 0 0 295 0 295 -615 0 -614 0 -3 113 -3 112 -55 28 c-30 15
-138 67 -240 117 l-185 90 943 0 942 0 -2 303 -3 302 -1088 3 -1087 2 2 -1257z"/>
<path d="M18990 4323 c0 -288 4 -483 9 -478 5 6 146 176 315 378 230 277 307
376 312 402 13 72 -17 139 -76 170 -24 12 -80 15 -295 15 l-265 0 0 -487z"/>
<path d="M27256 4292 c-3 -6 -5 -478 -4 -1049 l3 -1038 28 -57 c30 -61 74
-105 140 -140 40 -22 53 -23 340 -26 l297 -3 0 1049 c0 1152 3 1092 -60 1172
-18 22 -55 51 -88 67 l-57 28 -296 3 c-191 2 -299 0 -303 -6z"/>
</g>
</svg>
