<?xml version="1.0" standalone="no"?>
<!DOCTYPE svg PUBLIC "-//W3C//DTD SVG 20010904//EN"
 "http://www.w3.org/TR/2001/REC-SVG-20010904/DTD/svg10.dtd">
<svg version="1.0" xmlns="http://www.w3.org/2000/svg"
 width="2191.000000pt" height="425.000000pt" viewBox="0 0 2191.000000 425.000000"
 preserveAspectRatio="xMidYMid meet">
<metadata>
Created by potrace 1.16, written by Peter Selinger 2001-2019
</metadata>
<g transform="translate(0.000000,425.000000) scale(0.100000,-0.100000)"
fill="#000000" stroke="none">
<path d="M7880 2175 l0 -1855 25 0 25 0 0 1855 0 1855 -25 0 -25 0 0 -1855z"/>
<path d="M9173 3238 c4 -859 3 -853 68 -1118 126 -511 413 -909 874 -1209 113
-74 398 -221 429 -221 23 0 204 86 319 151 367 209 651 498 820 834 125 248
186 463 222 770 12 104 15 274 15 852 l0 723 -1376 0 -1375 0 4 -782z m1413
556 c26 -34 31 -36 71 -31 23 2 44 2 47 0 2 -3 -2 -23 -10 -45 -14 -40 -13
-41 16 -75 17 -18 30 -36 30 -39 0 -2 -20 -13 -44 -24 -39 -16 -45 -23 -51
-59 -8 -46 -11 -48 -60 -24 -33 16 -37 16 -70 0 -50 -24 -54 -22 -61 24 -6 37
-12 44 -50 61 -24 10 -44 21 -44 23 0 2 13 20 30 38 26 30 28 38 20 68 -16 56
-15 59 34 53 41 -6 45 -4 71 30 15 20 31 36 36 36 4 0 20 -16 35 -36z m534
-256 c0 -5 25 -8 55 -8 30 0 55 -4 55 -9 0 -5 -7 -24 -14 -43 -14 -34 -14 -36
16 -72 17 -20 29 -38 27 -40 -2 -2 -23 -13 -45 -24 -36 -18 -42 -27 -48 -62
-3 -22 -9 -40 -12 -40 -2 0 -23 9 -45 20 l-40 21 -33 -21 c-47 -28 -53 -26
-60 24 -6 38 -11 45 -46 61 -22 10 -40 23 -40 28 0 6 12 23 27 39 25 26 26 30
15 66 -16 54 -18 52 37 52 44 0 51 3 77 37 l27 36 24 -29 c12 -16 23 -32 23
-36z m-990 -193 c30 -31 39 -35 87 -35 l53 0 0 -47 c0 -40 5 -52 35 -83 l35
-36 -35 -34 c-30 -30 -35 -40 -35 -82 l0 -48 -50 0 c-34 0 -56 -6 -68 -17 -62
-60 -57 -59 -102 -19 -34 30 -47 36 -85 36 l-45 0 0 45 c0 38 -5 49 -35 76
-19 18 -35 36 -35 41 0 5 16 22 35 39 31 28 35 37 35 80 l0 49 48 0 c42 0 53
5 82 35 19 19 37 35 40 35 3 0 21 -16 40 -35z m453 -144 c11 -20 28 -31 52
-35 45 -9 49 -17 19 -51 -16 -19 -24 -40 -24 -67 0 -36 -2 -39 -22 -31 -13 4
-36 8 -53 8 -16 0 -40 -4 -52 -8 -21 -8 -23 -5 -23 28 0 24 -9 48 -26 71 l-26
34 27 10 c14 5 32 10 38 10 7 0 21 14 32 30 25 37 36 38 58 1z m324 -91 c15
-26 23 -30 60 -30 24 0 43 -2 43 -4 0 -3 -9 -21 -21 -40 l-21 -36 21 -29 c12
-16 21 -32 21 -35 0 -3 -18 -6 -40 -6 -32 0 -43 -5 -62 -30 -12 -16 -24 -30
-28 -30 -3 0 -14 14 -23 30 -16 26 -24 30 -63 30 l-46 0 23 37 23 36 -22 39
-23 38 45 0 c39 0 47 4 63 30 9 17 21 30 25 30 4 0 15 -13 25 -30z m893 -432
c0 -161 -37 -416 -85 -589 -151 -537 -510 -952 -1059 -1219 l-103 -51 -81 37
c-46 21 -79 41 -75 47 3 6 1 7 -5 3 -28 -17 -360 201 -463 303 -14 14 -43 42
-65 61 -43 40 -70 69 -162 181 -34 42 -62 79 -62 83 0 5 -13 25 -28 45 -16 20
-36 50 -44 66 -8 17 -31 59 -50 95 -36 66 -106 235 -113 270 -2 10 -9 28 -15
39 -6 12 -9 21 -6 21 2 0 -2 24 -10 53 -30 110 -53 236 -63 347 -14 158 -19
258 -13 265 3 3 567 5 1254 5 l1248 0 0 -62z"/>
<path d="M9968 2665 l5 -45 -57 0 c-32 0 -55 -4 -52 -9 4 -5 0 -12 -6 -14 -10
-4 -10 -6 0 -6 6 -1 12 -6 12 -12 0 -5 -5 -7 -11 -3 -8 4 -8 1 -1 -12 16 -33
4 -44 -49 -44 l-49 0 0 -55 c0 -39 -4 -55 -12 -54 -35 4 -38 -2 -38 -66 0 -37
-4 -65 -10 -65 -5 0 -10 -24 -10 -54 0 -30 5 -58 10 -61 6 -4 10 -78 10 -191
0 -116 -4 -184 -10 -184 -6 0 -10 -29 -10 -66 0 -41 4 -63 10 -59 6 4 10 -33
10 -104 0 -62 4 -113 10 -116 5 -3 162 -6 349 -6 324 1 339 0 344 -18 7 -26
80 -71 117 -71 45 0 104 28 129 60 l21 30 348 2 347 3 3 113 c1 63 7 112 12
112 6 0 10 25 10 55 0 30 -4 55 -10 55 -6 0 -10 70 -10 189 0 116 4 192 10
196 13 8 13 105 0 105 -5 0 -10 30 -12 68 -3 65 -4 67 -30 70 -27 3 -28 6 -28
58 l0 54 -50 0 -50 0 0 50 0 50 -55 0 -55 0 0 46 c0 35 -3 45 -14 41 -80 -31
-164 -48 -255 -53 -133 -6 -215 -20 -264 -45 -37 -20 -64 -18 -51 3 4 6 3 8
-3 5 -5 -3 -29 1 -54 10 -24 8 -106 19 -182 24 -76 5 -144 12 -150 16 -7 4
-20 6 -29 5 -10 -2 -18 2 -18 9 0 7 -3 10 -6 6 -3 -3 -27 1 -52 9 -69 20 -70
20 -64 -31z m297 -65 c132 -8 210 -25 242 -51 10 -9 13 -90 13 -415 l0 -403
-57 26 c-55 26 -58 26 -197 18 -78 -5 -163 -9 -191 -9 l-50 -1 -3 415 c-1 228
0 425 3 437 5 20 6 21 52 6 27 -8 111 -18 188 -23z m795 -406 l0 -436 -102 8
c-57 5 -150 9 -208 9 -92 0 -110 -3 -141 -22 -20 -13 -39 -23 -43 -23 -3 0 -6
182 -6 404 l0 405 53 26 c46 22 73 27 203 35 82 5 163 14 179 19 71 22 65 59
65 -425z m-1090 -54 l0 -430 63 0 c34 0 123 5 198 12 151 13 191 6 254 -47
l30 -25 -30 7 c-38 10 -170 9 -392 -2 l-173 -8 0 455 c0 250 3 458 7 461 3 4
15 7 25 7 17 0 18 -20 18 -430z m1195 -30 l0 -455 -125 1 c-69 0 -190 3 -270
5 -80 2 -156 0 -170 -4 -22 -7 -21 -4 10 23 55 48 95 55 250 41 74 -6 161 -11
193 -11 l57 0 0 423 c0 233 3 427 7 431 4 4 16 6 28 4 20 -3 20 -8 20 -458z
m-1297 -79 l2 -434 213 8 c315 11 317 11 362 -13 l40 -21 -54 -1 c-30 0 -136
-7 -235 -16 -100 -8 -226 -14 -281 -12 l-100 3 -3 450 c-1 248 0 456 3 463 3
7 15 12 27 10 l23 -3 3 -434z m1402 -26 l0 -465 -111 0 c-61 0 -188 7 -282 15
-95 8 -194 16 -222 18 l-50 3 40 18 c45 21 56 22 358 11 l217 -8 0 437 0 436
25 0 25 0 0 -465z"/>
<path d="M10089 2538 c-1 -7 -2 -25 -3 -40 -5 -51 6 -55 200 -68 77 -5 148
-12 157 -16 11 -4 17 -1 17 9 0 19 -39 26 -165 33 -162 8 -165 9 -165 48 0 22
-6 36 -16 40 -22 8 -24 8 -25 -6z"/>
<path d="M10085 2350 c-9 -15 27 -20 186 -29 85 -5 162 -12 172 -16 12 -5 17
-3 17 8 0 20 -28 26 -145 32 -55 3 -128 7 -162 10 -34 2 -65 0 -68 -5z"/>
<path d="M10086 2232 c-8 -13 56 -20 237 -25 129 -4 160 1 120 18 -29 13 -350
19 -357 7z"/>
<path d="M10086 2113 c-4 -10 27 -13 147 -13 84 0 169 -3 190 -6 39 -7 51 7
20 22 -10 5 -93 9 -185 9 -128 1 -169 -2 -172 -12z"/>
<path d="M10210 2008 c-184 -14 -163 -30 35 -26 94 2 180 -1 193 -5 14 -5 22
-4 22 2 0 31 -91 41 -250 29z"/>
<path d="M10180 1888 c-137 -15 -126 -32 15 -22 156 10 183 10 228 1 24 -5 37
-4 37 3 0 30 -109 37 -280 18z"/>
<path d="M10637 2513 c-4 -3 -7 -29 -7 -56 0 -48 1 -49 25 -43 14 4 90 11 168
16 151 9 177 14 177 35 0 10 -9 11 -37 4 -21 -5 -93 -12 -160 -16 l-123 -6 0
36 c0 29 -4 37 -18 37 -10 0 -22 -3 -25 -7z"/>
<path d="M10968 2355 c-2 -3 -75 -9 -162 -13 -92 -5 -162 -14 -168 -20 -19
-19 -3 -23 43 -13 24 6 89 11 144 11 123 0 175 8 175 26 0 13 -21 19 -32 9z"/>
<path d="M10775 2229 c-77 -3 -141 -7 -142 -8 -2 0 -3 -8 -3 -17 0 -12 5 -14
18 -8 9 4 92 9 185 12 134 3 167 7 167 18 0 15 8 15 -225 3z"/>
<path d="M10720 2122 c-70 -7 -90 -14 -90 -29 0 -11 5 -13 18 -7 9 4 91 9 181
11 151 3 182 6 170 17 -5 5 -244 12 -279 8z"/>
<path d="M10661 2001 c-14 -4 -27 -13 -29 -20 -3 -10 3 -11 29 -5 36 9 266 7
312 -2 19 -4 27 -2 27 9 0 11 -24 15 -107 20 -126 8 -199 8 -232 -2z"/>
<path d="M10695 1895 c-5 -2 -22 -6 -37 -9 -57 -13 -25 -21 80 -21 59 0 142
-4 185 -8 61 -6 77 -5 77 5 0 17 -267 46 -305 33z"/>
<path d="M15956 3653 c-3 -203 -9 -384 -12 -404 l-6 -36 46 1 46 1 -2 287 c-2
157 0 289 4 293 5 5 56 -44 178 -175 74 -78 297 -326 331 -367 75 -90 74 -93
74 240 0 160 3 342 8 403 l7 110 -42 -2 -42 -2 2 -288 3 -289 -98 100 c-54 55
-181 189 -281 298 -101 108 -189 197 -196 197 -10 0 -14 -76 -20 -367z"/>
<path d="M19510 4011 c-105 -32 -160 -105 -160 -211 0 -109 44 -161 190 -224
93 -41 128 -64 145 -96 33 -65 8 -156 -54 -197 -70 -47 -187 -19 -237 56 -14
22 -30 38 -34 36 -11 -7 -32 -104 -24 -116 15 -25 93 -52 160 -57 178 -11 304
92 304 250 0 112 -45 160 -211 229 -103 42 -139 80 -139 145 0 64 23 102 77
126 72 32 142 7 178 -63 9 -16 19 -29 23 -29 15 0 42 103 31 116 -29 35 -180
56 -249 35z"/>
<path d="M12363 3962 c0 -39 3 -43 21 -38 12 2 64 6 115 7 l95 3 9 -34 c5 -20
7 -175 4 -360 l-5 -325 59 0 59 0 -7 290 c-3 159 -3 321 1 359 l8 68 117 -3
118 -4 0 40 0 40 -297 0 -297 0 0 -43z"/>
<path d="M13123 3610 l0 -395 58 0 58 0 -6 197 -6 198 233 0 232 0 -4 -197 -3
-198 60 0 60 0 0 395 0 395 -61 0 -60 0 4 -168 5 -167 -229 2 -229 3 2 165 3
165 -59 0 -58 0 0 -395z"/>
<path d="M14045 3610 l0 -395 210 0 210 0 0 37 0 36 -152 -5 -153 -6 0 163 0
163 135 -6 135 -6 0 40 0 40 -135 -7 -135 -7 0 143 0 143 150 -7 150 -7 0 38
0 38 -207 0 -208 0 0 -395z"/>
<path d="M15020 3735 c0 -299 8 -357 58 -430 18 -25 49 -50 86 -69 49 -26 72
-31 151 -34 194 -9 311 67 349 226 8 32 17 143 20 257 4 110 9 227 12 260 l6
60 -45 0 -46 0 -3 -280 c-3 -267 -4 -282 -26 -330 -44 -96 -98 -128 -213 -129
-129 0 -201 52 -229 166 -8 31 -11 133 -8 310 l3 263 -57 0 -58 0 0 -270z"/>
<path d="M16870 3610 l0 -395 58 0 57 0 0 395 0 396 -57 -1 -58 0 0 -395z"/>
<path d="M18035 3610 l0 -395 207 0 208 0 0 37 0 36 -155 -5 -155 -6 0 163 0
163 140 -6 140 -6 0 40 0 40 -137 -3 -138 -3 -3 85 c-2 47 0 109 3 139 l7 54
144 -7 144 -7 0 38 0 38 -202 0 -203 0 0 -395z"/>
<path d="M18645 3610 l0 -396 59 1 58 0 -3 185 c-4 164 -2 185 12 188 20 4 94
-80 218 -247 l93 -125 73 -1 c73 -1 73 -1 57 20 -134 166 -278 348 -280 353
-1 4 27 20 63 36 108 47 166 134 150 227 -10 57 -44 101 -100 129 -48 24 -59
25 -225 25 l-175 0 0 -395z m297 330 c58 -17 88 -60 88 -128 0 -107 -68 -163
-200 -166 -37 0 -70 1 -73 4 -2 3 -2 71 1 153 l5 147 71 0 c39 0 88 -5 108
-10z"/>
<path d="M19995 3610 l0 -395 55 0 55 0 0 395 0 395 -55 0 -55 0 0 -395z"/>
<path d="M20270 3961 c0 -40 2 -43 23 -38 18 5 161 10 205 8 9 -1 12 -80 12
-358 l0 -358 58 0 57 -1 -3 359 -4 359 121 -4 121 -3 0 40 0 40 -295 0 -295 0
0 -44z"/>
<path d="M20948 3995 c3 -5 16 -27 30 -49 13 -21 73 -122 134 -225 l110 -186
-4 -160 -3 -161 57 1 58 0 0 176 0 175 98 160 c54 87 114 184 135 214 20 30
37 57 37 60 0 3 -22 5 -48 5 l-49 0 -53 -102 c-69 -133 -150 -273 -158 -273
-8 0 -21 22 -133 229 l-78 144 -69 1 c-45 1 -68 -2 -64 -9z"/>
<path d="M17160 3988 c0 -4 23 -63 52 -131 28 -67 97 -237 153 -377 l103 -255
38 0 c38 0 38 1 62 65 29 77 205 500 256 617 20 45 36 84 36 87 0 3 -17 4 -37
3 l-37 -2 -38 -105 c-65 -180 -159 -422 -190 -490 l-29 -65 -15 27 c-20 38
-164 404 -208 529 l-38 106 -54 0 c-30 0 -54 -4 -54 -9z"/>
<path d="M12365 2970 c-4 -7 1532 -10 4599 -10 3064 0 4606 3 4606 10 0 7
-1540 10 -4599 10 -3056 0 -4602 -3 -4606 -10z"/>
<path d="M2725 2891 c-133 -34 -195 -133 -195 -305 1 -190 91 -296 251 -296
123 0 200 57 224 168 6 29 5 32 -19 32 -21 0 -27 -7 -36 -39 -34 -126 -203
-160 -301 -62 -101 101 -88 355 21 427 101 67 253 25 275 -76 5 -23 12 -30 31
-30 28 0 31 20 10 71 -27 65 -90 103 -182 113 -27 3 -62 1 -79 -3z"/>
<path d="M6447 2886 c-67 -18 -117 -62 -152 -131 -28 -55 -30 -68 -30 -165 0
-112 19 -175 68 -229 59 -64 192 -90 288 -56 119 42 186 188 160 346 -13 83
-37 132 -83 176 -62 60 -163 84 -251 59z m158 -55 c50 -22 87 -65 110 -125 24
-63 17 -204 -13 -262 -75 -146 -274 -150 -354 -8 -67 120 -37 316 58 378 59
39 136 46 199 17z"/>
<path d="M3112 2593 l3 -288 193 -3 192 -2 0 25 0 25 -170 0 -171 0 3 113 3
112 148 3 c138 2 147 4 147 22 0 18 -9 20 -147 22 l-148 3 -3 101 c-3 122 -17
114 186 114 135 0 142 1 142 20 0 19 -7 20 -190 20 l-190 0 2 -287z"/>
<path d="M3600 2590 l0 -290 25 0 25 0 0 247 c0 184 3 244 11 236 7 -7 80
-117 164 -245 141 -214 155 -233 184 -236 l31 -3 0 290 0 291 -25 0 -25 0 -2
-247 -3 -248 -109 165 c-60 91 -133 202 -163 248 -48 72 -58 82 -84 82 l-29 0
0 -290z"/>
<path d="M4110 2860 c0 -19 6 -20 90 -20 l90 0 0 -270 0 -270 25 0 25 0 0 264
c0 305 -11 279 112 275 66 -2 73 -1 73 17 0 18 -11 19 -207 22 -203 2 -208 2
-208 -18z"/>
<path d="M4600 2591 l0 -291 25 0 25 0 0 130 0 130 118 0 c153 0 158 -5 173
-141 12 -118 13 -119 45 -119 22 0 25 3 21 23 -3 12 -8 49 -12 82 -11 106 -15
124 -40 154 l-25 29 24 15 c76 50 73 192 -5 248 -32 22 -44 24 -191 27 l-158
4 0 -291z m307 225 c66 -34 68 -140 4 -183 -30 -21 -46 -23 -147 -23 l-114 0
0 108 c0 60 3 112 7 116 14 14 217 0 250 -18z"/>
<path d="M5120 2590 l0 -290 195 0 195 0 0 25 0 25 -170 0 -171 0 3 113 3 112
148 3 c138 2 147 4 147 22 0 18 -9 20 -147 22 l-148 3 -3 99 c-2 73 1 102 10
108 7 5 76 8 153 7 177 -1 165 -2 165 21 0 19 -7 20 -190 20 l-190 0 0 -290z"/>
<path d="M5822 2593 c3 -285 3 -288 24 -291 29 -4 34 18 34 161 l0 117 140 0
c133 0 140 1 140 20 0 19 -7 20 -140 20 l-140 0 0 104 c0 85 3 105 16 110 9 3
78 6 155 6 132 0 139 1 139 20 0 19 -7 20 -185 20 l-185 0 2 -287z"/>
<path d="M6890 2590 l0 -290 25 0 24 0 3 128 3 127 116 3 c150 3 156 -1 170
-113 19 -154 16 -145 51 -145 25 0 29 3 23 18 -4 9 -11 55 -16 102 -11 98 -24
137 -50 151 -17 9 -16 12 16 40 63 56 69 151 13 215 -40 45 -79 54 -240 54
l-138 0 0 -290z m270 241 c58 -12 90 -48 90 -101 0 -98 -36 -120 -200 -120
l-110 0 0 103 c0 67 4 107 12 115 14 14 140 16 208 3z"/>
<path d="M13806 2578 c-55 -134 -329 -755 -411 -933 -21 -44 -45 -98 -55 -120
l-17 -40 72 -1 72 -1 27 92 c15 50 52 152 81 226 l52 134 230 3 230 2 35 -77
c43 -95 123 -306 132 -349 l7 -30 109 0 108 0 -13 31 c-7 16 -75 170 -150 340
-148 333 -178 403 -290 680 l-74 180 -43 3 -43 3 -59 -143z m122 -263 c33 -77
74 -170 90 -207 17 -36 28 -69 25 -72 -9 -9 -361 -7 -366 2 -7 11 175 434 184
425 4 -4 34 -71 67 -148z"/>
<path d="M18151 2698 c-41 -106 -275 -641 -442 -1009 -49 -108 -89 -198 -89
-201 0 -2 32 -4 71 -4 l72 1 28 95 c16 52 52 155 81 228 l52 132 231 0 230 0
24 -58 c64 -153 101 -246 125 -319 l27 -80 104 1 c58 1 105 3 105 5 0 2 -67
155 -149 340 -139 313 -332 768 -362 854 -12 35 -15 37 -56 37 -36 0 -45 -4
-52 -22z m93 -433 c46 -105 86 -200 90 -212 l7 -23 -186 0 c-174 0 -187 1
-183 18 14 52 173 412 180 410 6 -2 47 -89 92 -193z"/>
<path d="M14665 2213 c0 -274 -4 -551 -8 -616 l-8 -118 318 3 c262 3 329 7
378 21 220 63 374 214 429 422 25 92 31 256 13 342 -42 194 -167 338 -347 399
-99 33 -226 44 -517 44 l-259 0 1 -497z m594 397 c113 -28 218 -105 274 -201
15 -25 37 -84 48 -130 28 -109 23 -297 -10 -401 -52 -161 -170 -268 -336 -303
-70 -15 -347 -21 -379 -9 -14 5 -16 61 -16 525 l0 520 23 9 c28 13 337 5 396
-10z"/>
<path d="M15985 2155 c0 -302 -4 -578 -8 -612 l-8 -62 328 2 328 2 1 54 0 53
-56 -5 c-31 -4 -136 -9 -233 -13 l-177 -7 2 259 3 259 145 -1 c80 0 172 -3
205 -7 l61 -6 0 54 0 53 -208 -5 -208 -6 0 223 0 222 213 -4 c116 -3 218 -7
225 -9 11 -3 14 9 14 49 l1 53 -314 2 -314 2 0 -550z"/>
<path d="M16894 2140 c1 -311 -3 -585 -7 -610 l-7 -45 340 -1 340 0 0 54 0 55
-52 -6 c-106 -12 -326 -20 -379 -13 l-54 7 2 87 c2 48 4 301 6 562 l3 475 -96
0 -96 0 0 -565z"/>
<path d="M19005 2095 l0 -610 95 -1 95 -1 0 611 0 611 -95 0 -95 0 0 -610z"/>
<path d="M19555 2214 c0 -275 -4 -552 -8 -616 l-8 -118 290 0 c311 0 375 7
490 54 79 32 169 94 221 153 156 177 195 498 88 722 -39 82 -141 185 -224 225
-121 60 -177 68 -529 73 l-320 5 0 -498z m600 393 c133 -38 225 -113 281 -230
42 -89 54 -152 54 -276 0 -178 -41 -297 -133 -398 -64 -69 -135 -107 -237
-129 -65 -14 -324 -19 -367 -8 l-23 6 0 523 c0 490 1 524 18 529 35 10 357 -3
407 -17z"/>
<path d="M20945 2145 c0 -308 -3 -583 -8 -612 l-8 -52 330 2 329 2 1 54 0 54
-57 -6 c-32 -4 -138 -9 -235 -13 l-177 -7 2 259 3 259 152 -1 c83 -1 176 -4
206 -7 l54 -7 0 54 0 54 -208 -5 -209 -6 0 223 0 222 213 -4 c116 -3 218 -7
225 -9 11 -3 14 9 14 49 l1 54 -314 1 -314 2 0 -560z"/>
<path d="M13215 2671 c-78 -35 -153 -137 -200 -273 l-28 -78 -53 0 c-47 0 -54
-2 -54 -20 0 -17 7 -20 46 -20 45 0 46 -1 42 -27 -15 -87 -142 -555 -161 -593
-27 -56 -56 -62 -110 -25 -47 32 -61 31 -75 -1 -16 -34 -1 -61 43 -73 86 -23
191 50 234 165 13 32 52 165 88 294 35 129 66 240 68 247 3 8 32 13 82 15 65
3 78 6 81 21 3 15 -6 17 -73 17 -58 0 -76 3 -72 13 2 6 12 39 21 71 24 80 71
174 109 214 50 52 105 38 122 -31 10 -37 20 -41 44 -15 28 29 26 64 -4 93 -30
31 -91 33 -150 6z"/>
<path d="M12606 2325 c-56 -20 -105 -63 -153 -134 -115 -169 -91 -341 48 -341
45 0 93 24 145 72 58 53 87 99 114 177 37 110 21 194 -43 224 -42 20 -60 21
-111 2z m82 -37 c41 -41 -27 -269 -108 -362 -50 -56 -112 -57 -123 0 -12 67
61 259 128 332 39 43 78 55 103 30z"/>
<path d="M4145 1921 c-127 -33 -200 -145 -199 -306 2 -144 67 -252 172 -283
102 -31 227 -1 284 66 50 59 70 135 66 242 -4 103 -23 156 -76 214 -51 54
-171 87 -247 67z m152 -60 c84 -39 131 -144 120 -271 -14 -162 -117 -251 -255
-220 -112 25 -167 118 -160 270 5 91 25 145 70 187 57 53 151 67 225 34z"/>
<path d="M5414 1921 c-82 -21 -141 -75 -180 -166 -27 -62 -25 -215 5 -281 45
-102 128 -154 246 -154 166 0 266 133 253 335 -8 121 -65 214 -154 251 -42 17
-130 25 -170 15z m151 -60 c81 -37 119 -114 120 -241 0 -110 -33 -186 -98
-224 -115 -68 -238 -30 -293 89 -27 57 -33 178 -13 246 36 118 173 181 284
130z"/>
<path d="M6280 1625 l0 -295 30 0 30 0 0 295 0 295 -30 0 -30 0 0 -295z"/>
<path d="M2540 1633 c-58 -152 -106 -283 -108 -290 -2 -8 6 -13 21 -13 22 0
29 10 59 88 l34 87 131 3 131 3 33 -91 c29 -77 37 -90 56 -90 13 0 23 6 23 13
0 11 -56 161 -176 475 -35 89 -36 92 -67 92 l-32 0 -105 -277z m196 69 l51
-137 -105 -3 c-57 -1 -107 -1 -109 2 -2 2 19 67 48 145 29 78 55 139 58 136 3
-3 28 -68 57 -143z"/>
<path d="M2970 1715 c0 -106 5 -217 11 -245 13 -60 55 -114 107 -135 50 -21
167 -19 217 4 93 43 104 79 105 354 l0 217 -25 0 -25 0 0 -213 c0 -201 -1
-215 -22 -257 -29 -57 -64 -75 -148 -74 -78 0 -122 22 -147 74 -15 29 -18 71
-21 253 l-4 217 -24 0 -24 0 0 -195z"/>
<path d="M3480 1890 c0 -19 7 -20 90 -20 l90 0 0 -270 0 -270 25 0 25 0 2 268
3 267 88 5 c48 3 87 8 87 13 0 4 0 12 0 17 0 6 -75 10 -205 10 -198 0 -205 -1
-205 -20z"/>
<path d="M4580 1621 l0 -291 25 0 25 0 2 248 3 247 64 -170 c131 -347 121
-325 145 -325 21 0 32 23 110 235 47 129 87 241 88 247 1 7 5 -97 8 -232 l5
-245 25 0 25 0 3 288 2 287 -39 0 -39 0 -45 -122 c-25 -68 -66 -181 -92 -251
-26 -70 -50 -125 -53 -122 -4 3 -47 115 -97 248 l-91 242 -37 3 -37 3 0 -290z"/>
<path d="M5790 1890 c0 -19 7 -20 90 -20 l90 0 0 -270 0 -270 25 0 25 0 2 268
3 267 88 3 c79 3 87 5 87 22 0 19 -8 20 -205 20 -198 0 -205 -1 -205 -20z"/>
<path d="M6410 1901 c0 -11 164 -486 186 -539 11 -28 18 -33 40 -30 25 3 30
12 65 113 64 190 147 429 154 448 7 16 3 18 -20 15 -28 -3 -31 -11 -112 -248
-46 -134 -86 -246 -88 -249 -5 -5 -2 -14 -99 272 -73 211 -80 227 -102 227
-13 0 -24 -4 -24 -9z"/>
<path d="M6930 1620 l0 -290 189 0 c192 0 206 3 194 38 -4 9 -46 12 -169 12
l-164 0 0 115 0 115 150 0 c143 0 150 1 150 20 0 19 -7 20 -150 20 l-150 0 0
110 0 110 166 0 c152 0 165 1 162 18 -3 15 -21 17 -191 20 l-187 2 0 -290z"/>
<path d="M8920 1181 c0 -183 2 -202 18 -208 147 -50 322 -139 322 -165 0 -5
-27 -63 -61 -129 -33 -66 -58 -126 -56 -133 6 -16 147 -111 230 -154 197 -104
469 -184 777 -228 149 -21 515 -29 684 -15 335 28 652 107 882 218 84 41 212
118 254 154 l34 29 -64 131 -65 131 30 24 c39 32 175 97 248 120 l57 18 0 203
c0 164 -3 203 -13 203 -34 0 -292 -83 -385 -124 -154 -67 -324 -173 -339 -211
-4 -12 79 -217 98 -241 13 -16 -4 -28 -91 -62 -446 -177 -1068 -209 -1570 -82
-116 29 -314 102 -338 124 -10 9 -1 37 42 136 62 144 65 131 -43 204 -97 65
-203 120 -306 159 -97 37 -247 82 -307 93 l-38 6 0 -201z m2872 -537 c27 -43
48 -82 48 -86 0 -4 -9 -12 -21 -19 -18 -9 -26 -7 -50 17 -31 30 -39 22 -13
-14 17 -25 11 -42 -14 -42 -26 0 -116 158 -101 176 17 21 40 17 72 -13 l30
-28 -18 31 c-19 33 -14 69 8 62 6 -2 33 -40 59 -84z m-2348 47 c23 -26 18 -66
-9 -66 -13 0 -21 8 -23 23 -4 24 -22 31 -22 9 0 -8 7 -29 16 -47 15 -30 15
-35 0 -66 -12 -27 -22 -34 -44 -34 -44 0 -74 26 -70 63 2 24 8 32 23 32 14 0
21 -8 23 -27 4 -31 22 -39 22 -9 0 10 -6 34 -14 52 -21 54 -2 89 49 89 19 0
39 -8 49 -19z m105 -50 c11 -7 9 -21 -14 -80 -16 -39 -25 -74 -21 -78 10 -10
21 6 46 72 13 33 25 62 26 63 6 8 44 -10 44 -20 0 -16 -50 -140 -62 -155 -15
-18 -68 -16 -90 4 -25 22 -23 55 8 135 25 67 35 76 63 59z m2036 -37 c-10 -7
-23 -15 -29 -17 -8 -3 -8 -8 0 -17 9 -9 17 -9 33 -1 16 9 22 8 30 -7 11 -21
-3 -42 -26 -42 -15 0 -15 -2 -7 -24 4 -12 11 -13 32 -5 21 8 29 7 39 -8 12
-16 9 -20 -33 -41 -25 -13 -50 -22 -55 -20 -10 3 -79 155 -79 174 0 6 21 21
48 32 42 19 48 19 56 5 6 -11 3 -20 -9 -29z m-1830 -38 c29 -12 35 -20 35 -45
0 -16 -4 -33 -10 -36 -5 -3 -10 -22 -10 -42 0 -42 -23 -73 -55 -73 -32 0 -85
20 -85 32 0 6 12 48 26 94 28 93 34 97 99 70z m1710 -72 c15 -47 24 -92 21
-100 -10 -27 -39 -10 -52 31 l-14 40 4 -42 c6 -67 -22 -83 -55 -30 l-20 32 6
-36 c5 -29 3 -38 -11 -43 -23 -9 -27 -3 -52 84 -26 89 -27 106 -6 114 34 13
51 5 72 -36 l22 -43 -6 49 c-6 53 2 66 43 66 19 0 26 -12 48 -86z m-237 -38
c22 -118 16 -140 -45 -152 -43 -8 -68 28 -83 117 -10 59 -10 73 1 80 29 18 37
7 49 -59 6 -37 15 -74 20 -82 17 -28 23 0 11 56 -17 87 -15 104 12 104 21 0
25 -7 35 -64z m-1180 38 c14 -10 22 -25 22 -45 0 -40 -38 -38 -53 4 -4 10 -11
16 -16 13 -12 -8 -33 -105 -25 -117 9 -15 22 -10 29 12 10 31 51 22 47 -10 -4
-37 -21 -51 -63 -51 -40 0 -69 26 -69 62 0 37 22 119 37 133 19 19 63 19 91
-1z m185 -26 c17 -9 25 -67 10 -81 -4 -4 -5 -32 -4 -62 2 -53 2 -55 -23 -55
-24 0 -26 4 -26 41 0 49 -23 50 -28 1 -3 -27 -7 -32 -29 -32 l-26 0 7 68 c15
145 13 141 60 135 22 -3 49 -10 59 -15z m761 -15 c2 -16 8 -49 11 -75 6 -45 8
-48 36 -48 22 0 29 -5 29 -19 0 -20 -26 -31 -76 -31 -31 0 -31 1 -38 63 -4 34
-10 79 -13 100 -5 35 -4 37 20 37 20 0 27 -6 31 -27z m-637 -58 c2 -94 2 -95
12 -95 4 0 12 36 15 80 7 78 8 80 33 80 l26 0 -7 -84 c-8 -105 -11 -113 -47
-121 -70 -16 -93 21 -83 129 8 82 10 88 32 84 14 -3 17 -17 19 -73z m246 53
c9 -7 18 -24 19 -38 4 -33 -37 -42 -47 -11 -13 42 -35 11 -35 -51 0 -52 22
-78 33 -38 7 26 57 28 57 2 0 -35 -29 -62 -67 -62 -58 0 -73 21 -73 102 0 55
4 72 20 88 23 23 68 26 93 8z m187 -7 c0 -14 -8 -21 -27 -23 -39 -4 -42 -28
-4 -28 26 0 31 -4 31 -25 0 -20 -5 -25 -25 -25 -18 0 -25 -5 -25 -20 0 -16 7
-20 30 -20 23 0 30 -5 30 -19 0 -15 -10 -19 -52 -24 -28 -4 -54 -5 -56 -3 -2
3 -6 50 -9 105 l-6 101 57 0 c49 0 56 -3 56 -19z"/>
<path d="M361 951 c-76 -20 -123 -77 -123 -150 0 -87 41 -127 166 -157 136
-33 176 -63 176 -135 0 -73 -53 -114 -146 -114 -89 1 -139 37 -154 110 -4 23
-12 31 -33 33 -31 4 -34 -8 -15 -70 24 -81 110 -124 229 -116 77 6 121 28 152
78 28 45 28 130 0 168 -23 33 -107 75 -182 92 -76 17 -127 44 -135 72 -12 47
-6 78 23 110 25 28 35 32 92 36 55 3 69 0 99 -20 30 -21 41 -39 56 -95 5 -18
54 -17 54 1 0 50 -43 116 -92 142 -34 18 -123 25 -167 15z"/>
<path d="M4401 950 c-130 -31 -172 -197 -66 -266 13 -9 70 -29 127 -45 119
-34 158 -65 158 -124 0 -80 -49 -120 -146 -119 -85 1 -123 24 -149 92 -16 41
-25 52 -42 52 -26 0 -28 -15 -13 -72 12 -43 63 -91 116 -108 52 -17 172 -8
213 16 46 27 72 74 73 132 2 94 -51 145 -187 178 -82 20 -140 47 -149 69 -20
53 3 117 49 140 91 42 205 -2 217 -86 3 -24 33 -38 49 -22 13 13 -8 78 -37
113 -40 47 -132 69 -213 50z"/>
<path d="M6455 951 c-76 -19 -131 -67 -167 -146 -18 -41 -22 -68 -22 -145 -1
-112 13 -164 57 -221 48 -63 96 -84 192 -84 62 0 89 5 120 21 48 25 93 86 102
137 5 35 4 37 -20 37 -20 0 -26 -6 -31 -34 -14 -75 -77 -119 -172 -120 -82 -1
-131 31 -170 110 -24 48 -28 70 -28 138 0 45 6 100 13 124 14 51 64 110 108
128 42 18 115 18 156 0 39 -16 87 -70 87 -96 0 -19 32 -36 49 -26 11 7 -1 54
-24 94 -41 68 -154 106 -250 83z"/>
<path d="M879 913 c-127 -332 -199 -528 -199 -540 0 -9 8 -13 22 -11 17 2 29
21 56 91 l34 88 131 -3 131 -3 32 -85 c28 -74 35 -85 58 -88 14 -2 26 -1 26 2
0 6 -122 329 -183 486 -31 80 -34 85 -65 88 -27 3 -34 -1 -43 -25z m148 -320
c-2 -2 -52 -2 -110 -1 l-105 3 44 120 c72 194 58 191 120 26 30 -79 53 -145
51 -148z"/>
<path d="M1240 649 l0 -290 23 3 c21 3 22 6 25 141 l3 137 139 0 c133 0 140 1
140 20 0 19 -7 20 -140 20 l-140 0 0 110 0 110 155 0 c148 0 155 1 155 20 0
19 -7 20 -180 20 l-180 0 0 -291z"/>
<path d="M1695 927 c-3 -7 -4 -136 -3 -287 l3 -275 193 -3 192 -2 0 25 0 25
-165 0 -165 0 0 115 0 115 145 0 c138 0 145 1 145 20 0 19 -7 20 -145 20
l-145 0 0 110 0 110 160 0 c153 0 160 1 160 20 0 19 -7 20 -185 20 -140 0
-187 -3 -190 -13z"/>
<path d="M2124 929 c-12 -20 11 -28 96 -31 l85 -3 3 -268 2 -268 23 3 c22 3
22 3 27 268 l5 265 88 3 c79 3 87 5 87 22 0 19 -8 20 -204 20 -137 0 -207 -4
-212 -11z"/>
<path d="M2553 928 c2 -7 47 -78 98 -158 l94 -145 3 -132 4 -133 24 0 24 0 0
131 0 131 93 147 c51 80 97 152 101 159 5 8 -1 12 -22 12 -27 0 -37 -11 -113
-134 -45 -74 -85 -133 -89 -131 -3 2 -42 62 -85 134 -72 118 -83 131 -109 131
-18 0 -26 -4 -23 -12z"/>
<path d="M3280 650 l0 -290 25 0 25 0 0 130 0 130 120 0 c139 0 155 -8 164
-82 3 -24 9 -72 13 -108 8 -62 9 -65 37 -68 25 -3 28 -1 23 20 -3 13 -9 55
-12 93 -8 88 -20 128 -45 150 -20 18 -19 19 15 52 74 72 55 199 -36 245 -28
15 -61 18 -181 18 l-148 0 0 -290z m313 227 c33 -22 53 -85 41 -128 -17 -60
-50 -74 -185 -77 l-119 -4 0 109 c0 61 3 113 8 117 4 5 57 6 118 4 83 -3 118
-9 137 -21z"/>
<path d="M3800 650 l0 -290 195 0 195 0 0 25 0 25 -170 0 -171 0 3 113 3 112
148 3 c138 2 147 4 147 22 0 18 -9 20 -147 22 l-148 3 0 105 0 105 163 3 c154
2 162 4 162 22 0 19 -7 20 -190 20 l-190 0 0 -290z"/>
<path d="M4780 650 l0 -290 193 2 c184 3 192 4 192 23 0 19 -8 20 -167 23
l-168 2 0 115 0 115 150 0 c143 0 150 1 150 20 0 19 -7 20 -150 20 l-151 0 3
108 3 107 163 3 c154 2 162 4 162 22 0 19 -7 20 -190 20 l-190 0 0 -290z"/>
<path d="M5404 904 c-22 -52 -204 -535 -204 -541 0 -2 12 -3 26 -1 23 3 30 14
58 88 l32 85 133 0 133 0 32 -85 c28 -75 34 -85 56 -85 14 0 24 5 23 10 -1 6
-48 134 -106 285 l-104 275 -32 3 c-28 3 -33 -1 -47 -34z m99 -159 c25 -66 49
-128 52 -137 7 -17 -2 -18 -105 -18 -85 0 -111 3 -108 13 49 138 104 275 109
269 3 -4 27 -61 52 -127z"/>
<path d="M5762 653 l3 -288 22 -3 c22 -3 22 -1 25 125 l3 128 116 3 c153 3
158 0 171 -124 13 -115 20 -134 54 -134 21 0 25 3 19 18 -5 9 -12 51 -16 92
-12 119 -18 139 -45 156 l-24 17 35 31 c62 53 68 164 12 217 -43 41 -79 49
-232 49 l-145 0 2 -287z m273 237 c53 -12 85 -50 85 -100 0 -96 -32 -115 -189
-115 l-116 0 -3 90 c-4 140 -8 135 96 135 48 0 105 -5 127 -10z"/>
<path d="M6850 649 l0 -290 23 3 c21 3 22 7 25 140 l3 137 164 3 165 3 2 -140
c3 -137 4 -140 26 -143 l22 -3 0 290 0 291 -25 0 -25 0 0 -125 0 -125 -165 0
-165 0 0 125 0 125 -25 0 -25 0 0 -291z"/>
</g>
</svg>
