<?xml version="1.0" standalone="no"?>
<!DOCTYPE svg PUBLIC "-//W3C//DTD SVG 20010904//EN"
 "http://www.w3.org/TR/2001/REC-SVG-20010904/DTD/svg10.dtd">
<svg version="1.0" xmlns="http://www.w3.org/2000/svg"
 width="300.000000pt" height="300.000000pt" viewBox="0 0 300.000000 300.000000"
 preserveAspectRatio="xMidYMid meet">

<g transform="translate(0.000000,300.000000) scale(0.100000,-0.100000)"
fill="#000000" stroke="none">
<path d="M140 2491 c-14 -27 -14 -1535 0 -1562 10 -18 27 -19 571 -19 l559 0
-2 -162 -3 -163 -113 0 -112 0 0 -37 0 -38 465 0 465 0 0 38 0 37 -112 0 -113
0 -3 163 -2 162 559 0 c544 0 561 1 571 19 14 27 14 1535 0 1562 -11 19 -36
19 -1365 19 -1329 0 -1354 0 -1365 -19z m2660 -661 l0 -610 -1295 0 -1295 0 0
610 0 610 1295 0 1295 0 0 -610z m0 -765 l0 -85 -1295 0 -1295 0 0 85 0 85
1295 0 1295 0 0 -85z m-1132 -317 l-3 -163 -160 0 -160 0 -3 163 -2 162 165 0
165 0 -2 -162z"/>
<path d="M1408 2249 c-111 -9 -183 -24 -287 -60 -140 -48 -314 -153 -394 -237
-25 -25 -26 -30 -12 -42 8 -7 15 -21 15 -32 0 -15 14 -8 68 38 225 192 468
275 761 261 248 -12 438 -86 634 -245 l68 -55 24 23 25 24 -27 29 c-43 45
-151 121 -234 166 -188 101 -418 148 -641 130z"/>
<path d="M1422 2106 c-226 -74 -269 -375 -73 -503 122 -80 273 -58 370 53 48
54 64 99 65 179 1 82 -22 140 -82 200 -70 71 -188 101 -280 71z m173 -83 c74
-38 118 -108 117 -189 -1 -117 -89 -204 -207 -204 -119 0 -206 87 -206 205 0
155 160 257 296 188z"/>
<path d="M2290 1795 c0 -18 -12 -19 -27 -4 -7 7 -26 -3 -64 -37 -311 -276
-782 -336 -1166 -149 -86 43 -231 141 -262 179 -13 16 -16 15 -42 -10 l-28
-27 46 -41 c283 -252 700 -345 1072 -240 115 32 273 111 368 183 106 80 137
114 128 140 -7 24 -25 28 -25 6z"/>
</g>
</svg>
