<?xml version="1.0" standalone="no"?>
<!DOCTYPE svg PUBLIC "-//W3C//DTD SVG 20010904//EN"
 "http://www.w3.org/TR/2001/REC-SVG-20010904/DTD/svg10.dtd">
<svg version="1.0" xmlns="http://www.w3.org/2000/svg"
 width="300.000000pt" height="300.000000pt" viewBox="0 0 300.000000 300.000000"
 preserveAspectRatio="xMidYMid meet">

<g transform="translate(0.000000,300.000000) scale(0.100000,-0.100000)"
fill="#000000" stroke="none">
<path d="M1002 2489 c-75 -16 -123 -99 -103 -176 11 -38 58 -93 82 -93 5 0 9
-47 9 -104 l0 -105 -41 -23 c-55 -31 -95 -89 -115 -167 -14 -57 -16 -162 -3
-175 2 -3 20 -1 39 3 34 7 34 7 31 59 -3 71 21 151 59 187 l30 29 0 -147 0
-146 88 -3 c85 -3 87 -3 87 -28 l0 -25 -207 -3 -208 -2 0 120 0 120 -64 0
c-61 0 -64 1 -76 30 -38 92 -197 93 -245 1 -8 -17 -15 -50 -15 -75 0 -85 88
-149 170 -126 42 12 61 26 84 63 12 17 27 27 42 27 24 0 24 0 24 -120 l0 -120
251 0 250 0 -3 -27 -3 -28 -270 -3 -270 -2 -17 29 c-36 65 -120 88 -185 51
-50 -28 -73 -66 -73 -122 0 -54 27 -100 73 -121 67 -32 143 -12 178 48 l21 35
274 0 274 0 0 -25 0 -25 -250 0 -250 0 0 -145 0 -144 -30 -16 c-86 -44 -93
-172 -14 -234 20 -15 41 -21 80 -21 47 0 59 4 90 32 40 38 57 92 43 140 -10
35 -56 88 -76 88 -10 0 -13 26 -13 110 l0 110 208 -2 207 -3 5 -40 c5 -38 7
-40 45 -45 37 -5 40 -8 43 -38 3 -29 6 -32 37 -32 31 0 34 3 37 33 2 27 8 33
31 35 25 3 27 1 27 -32 0 -35 1 -36 40 -36 39 0 40 1 40 35 0 32 2 35 30 35
28 0 30 -3 30 -35 0 -34 1 -35 40 -35 39 0 40 1 40 35 0 30 3 35 24 35 21 0
25 -6 28 -32 3 -30 6 -33 40 -36 35 -3 37 -2 40 30 2 24 8 34 23 36 63 9 65
11 65 52 l0 40 100 0 100 0 0 -32 c-1 -67 -60 -154 -121 -177 -17 -6 -29 -20
-34 -38 -10 -42 -43 -91 -73 -109 -15 -8 -38 -33 -51 -54 -48 -76 -117 -88
-171 -30 -28 30 -40 73 -40 148 0 41 -1 42 -35 42 l-35 0 0 -65 c0 -104 -33
-160 -102 -171 -29 -5 -41 -1 -71 25 -21 19 -37 43 -39 59 -2 20 -14 33 -48
50 -61 32 -80 51 -80 78 0 16 -14 32 -44 53 -44 31 -96 113 -96 153 0 23 -22
32 -55 24 -16 -4 -25 -13 -25 -26 0 -40 43 -131 83 -177 23 -26 55 -65 71 -86
15 -21 46 -51 67 -67 21 -15 54 -49 72 -76 36 -52 102 -94 149 -94 39 0 97 26
130 57 l28 27 23 -22 c28 -27 88 -52 124 -52 44 0 113 40 144 83 16 22 47 55
68 74 22 18 49 53 61 78 12 25 36 53 55 65 65 40 125 151 125 232 0 28 0 28
65 28 l65 0 0 -140 0 -140 -100 0 -100 0 0 -64 c0 -62 -1 -65 -33 -84 -60 -35
-83 -120 -52 -186 18 -37 79 -76 119 -76 70 0 129 51 141 120 9 51 -22 118
-65 143 -20 12 -30 26 -30 43 0 24 1 24 100 24 l100 0 0 220 0 220 -243 2
-242 3 -3 28 -3 27 310 0 311 0 0 -133 0 -133 -31 -18 c-40 -24 -73 -95 -64
-139 21 -97 119 -145 204 -99 92 49 93 184 2 238 l-31 18 0 167 c0 143 -2 168
-16 173 -9 3 -166 6 -350 6 l-335 0 3 28 3 27 348 3 347 2 0 69 c0 68 1 70 34
90 84 52 87 173 7 230 -45 33 -82 36 -135 12 -84 -37 -108 -141 -49 -211 13
-16 33 -32 43 -35 15 -5 20 -15 20 -41 l0 -34 -310 0 -310 0 0 25 0 25 248 2
247 3 3 262 2 263 31 15 c62 32 87 121 54 186 -49 94 -210 91 -251 -6 -29 -71
-6 -148 56 -183 l30 -17 0 -223 0 -222 -207 2 -208 3 -3 30 c-4 36 -26 55 -64
55 -25 0 -28 3 -28 36 0 35 -1 35 -37 32 -35 -3 -38 -6 -41 -35 -3 -27 -8 -33
-27 -33 -19 0 -24 6 -27 33 -3 29 -6 32 -40 35 -37 3 -38 3 -38 -32 0 -33 -2
-36 -30 -36 -28 0 -30 3 -30 36 0 35 -1 35 -37 32 -35 -3 -38 -6 -41 -35 -3
-29 -7 -33 -33 -33 -27 0 -29 3 -29 35 0 33 -2 35 -34 35 -32 0 -35 -3 -38
-32 -3 -28 -7 -33 -33 -36 -42 -5 -55 -19 -55 -58 l0 -34 -50 0 -50 0 0 253 0
252 30 17 c135 77 54 290 -98 257z m62 -90 c33 -26 35 -71 4 -93 -30 -21 -54
-20 -78 4 -27 27 -25 56 5 85 29 30 35 31 69 4z m1270 -65 c33 -32 13 -88 -36
-99 -31 -8 -68 23 -68 57 0 49 69 78 104 42z m196 -514 c24 -24 26 -57 3 -82
-21 -24 -58 -23 -83 2 -25 25 -25 41 1 74 24 31 52 33 79 6z m-1994 -19 c16
-30 4 -62 -28 -80 -23 -13 -29 -13 -52 2 -30 20 -35 66 -10 92 24 24 76 16 90
-14z m1214 -336 l0 -255 -252 2 -253 3 -3 240 c-1 132 0 245 2 252 4 10 63 13
256 13 l250 0 0 -255z m-1235 -21 c37 -15 38 -82 1 -106 -34 -23 -86 8 -86 50
0 47 40 73 85 56z m2015 -444 c24 -24 26 -57 3 -82 -21 -24 -58 -23 -83 2 -23
23 -24 33 -9 63 23 42 57 49 89 17z m-1773 -96 c15 -23 15 -29 2 -52 -31 -55
-101 -44 -107 16 -4 43 12 62 54 62 25 0 38 -7 51 -26z m1367 -196 c21 -30 20
-54 -4 -78 -55 -55 -136 24 -83 82 23 25 68 23 87 -4z"/>
<path d="M1320 1631 c-15 -29 -13 -324 2 -339 8 -8 63 -12 180 -12 155 0 168
1 178 19 5 11 10 84 10 166 0 82 -5 155 -10 166 -10 18 -23 19 -180 19 -157 0
-170 -1 -180 -19z m290 -166 l0 -105 -110 0 -110 0 0 105 0 105 110 0 110 0 0
-105z"/>
<path d="M1606 2300 c-16 -5 -47 -23 -68 -41 l-39 -31 -22 20 c-36 32 -67 44
-117 44 -62 0 -82 -11 -167 -98 l-72 -72 31 -21 c25 -15 36 -17 52 -9 11 6 31
14 45 18 20 5 27 14 31 41 4 27 12 38 42 52 33 16 40 17 72 3 53 -22 76 -67
76 -148 l0 -68 40 0 40 0 0 76 c0 54 5 84 17 105 21 36 74 62 108 53 30 -7 82
-64 91 -99 3 -13 16 -27 27 -31 37 -11 88 -54 104 -89 11 -22 25 -35 43 -38
44 -9 86 -53 115 -121 l28 -63 34 8 c19 4 36 9 38 11 2 2 -7 30 -20 62 -28 69
-68 122 -116 153 -19 12 -59 46 -90 75 -30 29 -66 62 -80 74 -13 12 -39 40
-57 63 -51 63 -122 91 -186 71z"/>
</g>
</svg>
