<?xml version="1.0" standalone="no"?>
<!DOCTYPE svg PUBLIC "-//W3C//DTD SVG 20010904//EN"
 "http://www.w3.org/TR/2001/REC-SVG-20010904/DTD/svg10.dtd">
<svg version="1.0" xmlns="http://www.w3.org/2000/svg"
 width="300.000000pt" height="300.000000pt" viewBox="0 0 300.000000 300.000000"
 preserveAspectRatio="xMidYMid meet">

<g transform="translate(0.000000,300.000000) scale(0.100000,-0.100000)"
fill="#000000" stroke="none">
<path d="M401 2645 c-114 -36 -172 -170 -122 -281 61 -133 223 -164 328 -62
18 18 35 29 38 27 2 -3 40 -81 85 -174 l80 -170 -52 -23 c-85 -37 -93 -38
-108 -3 -17 42 -81 98 -127 110 -53 15 -87 14 -131 -5 -110 -45 -161 -173
-113 -280 63 -139 238 -165 338 -51 18 21 35 37 37 37 3 0 39 -43 81 -95 l76
-95 -77 -100 c-42 -55 -78 -100 -80 -100 -1 0 -12 15 -24 34 -39 64 -161 98
-241 68 -42 -16 -91 -64 -110 -107 -70 -153 65 -320 231 -284 55 12 121 63
140 109 7 16 18 30 24 30 19 0 136 -41 136 -48 0 -3 -37 -84 -82 -179 -73
-154 -98 -196 -98 -163 0 18 -91 69 -135 75 -121 19 -235 -81 -235 -205 0
-112 98 -210 207 -210 81 1 170 68 194 148 l11 39 292 123 c160 68 298 125
307 127 10 3 20 -6 28 -25 40 -97 183 -142 288 -91 47 23 77 58 97 116 12 34
21 41 87 69 270 116 527 224 532 224 3 0 17 -20 31 -44 67 -114 225 -135 321
-42 148 142 23 383 -180 345 -58 -11 -104 -38 -130 -78 -11 -17 -22 -31 -25
-30 -9 1 -150 187 -150 198 0 13 140 191 150 191 3 0 17 -14 29 -31 29 -39
113 -79 166 -79 78 1 158 56 189 132 57 135 -50 288 -200 288 -54 0 -130 -46
-165 -101 -18 -27 -36 -49 -40 -49 -20 0 -595 250 -601 261 -3 8 -17 36 -29
63 -26 57 -88 102 -156 112 -78 12 -184 -46 -213 -116 -7 -16 -18 -30 -24 -30
-6 0 -144 57 -307 127 l-297 128 -11 37 c-32 104 -154 167 -260 133z m119 -80
c90 -47 96 -178 10 -229 -121 -71 -254 87 -163 194 42 51 98 63 153 35z m470
-310 c113 -48 209 -91 213 -95 4 -4 -42 -28 -104 -54 -62 -25 -113 -45 -114
-44 -1 2 -50 65 -109 140 -98 126 -119 156 -98 145 4 -2 99 -44 212 -92z m567
13 c60 -37 80 -116 43 -175 -51 -84 -176 -84 -225 0 -69 116 67 247 182 175z
m-684 -187 c41 -53 44 -61 22 -61 -8 0 -26 22 -40 50 -39 77 -34 80 18 11z
m936 -180 c67 -85 121 -157 121 -160 0 -5 -161 -75 -222 -97 -12 -4 -22 5 -37
35 -65 127 -229 147 -333 41 l-46 -48 -51 64 -51 63 55 118 c31 64 58 119 60
121 3 3 22 -11 43 -30 50 -45 101 -62 163 -55 62 8 101 28 136 72 15 19 31 34
35 32 4 -1 61 -71 127 -156z m-648 122 c-11 -16 -31 -41 -45 -58 l-26 -30 -26
30 -27 30 59 27 c77 35 91 36 65 1z m852 -59 c111 -47 206 -89 210 -93 4 -4
-27 -23 -70 -41 -43 -18 -92 -39 -110 -46 l-32 -14 -110 140 c-61 77 -107 140
-101 140 6 0 101 -39 213 -86z m-1456 -8 c76 -83 19 -216 -92 -216 -65 0 -119
48 -126 110 -5 51 3 75 41 112 39 39 42 40 92 36 44 -5 57 -11 85 -42z m2050
0 c28 -30 33 -43 33 -86 0 -43 -5 -56 -33 -86 -59 -65 -162 -56 -207 19 -36
59 -17 141 42 177 52 33 122 23 165 -24z m-1603 -42 l35 -46 -26 -35 c-14 -18
-29 -30 -32 -26 -4 4 -20 36 -36 71 -25 54 -27 65 -15 72 26 17 38 11 74 -36z
m-136 -49 c36 -74 36 -74 -78 -22 l-55 25 45 20 c25 11 50 21 56 21 5 1 20
-19 32 -44z m232 -70 c0 -13 -31 -65 -39 -65 -19 0 -19 15 0 41 18 26 39 38
39 24z m-259 -57 c73 -29 74 -31 45 -64 l-26 -29 -26 30 c-44 52 -66 85 -56
85 5 0 34 -10 63 -22z m1350 5 c-5 -10 -25 -36 -45 -58 l-36 -40 -20 25 c-11
14 -20 28 -20 33 0 8 97 55 118 56 9 1 10 -4 3 -16z m-1013 -58 c-11 -11 -37
7 -31 22 5 13 8 13 21 -1 9 -9 13 -18 10 -21z m383 2 c22 -15 39 -38 49 -65
47 -136 -125 -232 -223 -124 -47 52 -39 131 19 181 44 39 104 42 155 8z m468
-62 l33 -45 -37 -50 c-36 -50 -37 -50 -68 -36 -18 7 -67 28 -109 46 -43 18
-78 36 -78 39 0 8 189 89 210 90 8 0 30 -20 49 -44z m-1044 -15 c14 -28 14
-33 -3 -66 l-18 -36 -27 35 -26 34 22 31 c12 18 25 32 29 32 4 0 14 -13 23
-30z m182 -11 l48 -21 -40 -18 c-53 -24 -72 -24 -80 0 -7 23 2 60 15 60 5 0
30 -10 57 -21z m640 -125 c59 -25 112 -50 117 -54 7 -7 -167 -241 -229 -308
-10 -11 -21 -6 -57 31 -70 70 -157 83 -248 37 -19 -10 -44 -27 -54 -39 -27
-29 -32 -27 -54 22 -11 23 -36 77 -55 119 l-36 76 51 65 50 64 47 -47 c79 -79
171 -89 266 -29 32 20 52 42 63 69 10 22 20 40 24 40 3 0 55 -21 115 -46z
m-917 6 l21 -30 -48 -21 c-74 -32 -93 -39 -93 -33 0 9 84 114 92 114 4 0 16
-14 28 -30z m1276 -32 c27 -34 41 -59 33 -56 -88 35 -129 54 -129 61 0 11 33
56 42 57 4 0 28 -28 54 -62z m-996 7 c-7 -8 -17 -12 -23 -8 -6 4 -3 11 8 19
23 17 32 10 15 -11z m-85 -56 c9 -17 14 -34 10 -37 -9 -10 -57 47 -50 59 11
17 24 9 40 -22z m-559 5 c43 -21 64 -59 64 -119 0 -38 -6 -52 -34 -83 -32 -34
-38 -37 -91 -37 -53 0 -59 3 -91 37 -19 21 -34 48 -35 60 -4 72 13 107 64 138
39 24 78 25 123 4z m2048 1 c91 -44 89 -182 -4 -230 -84 -43 -190 21 -190 115
0 95 105 157 194 115z m-446 -67 c56 -23 102 -45 102 -48 0 -6 -432 -191 -437
-186 -6 5 212 276 222 276 5 0 56 -19 113 -42z m-1238 7 c0 -3 -9 -24 -21 -46
-22 -44 -28 -45 -96 -18 l-28 11 60 28 c59 28 85 35 85 25z m121 -17 c25 -31
24 -43 -7 -83 -23 -30 -28 -33 -54 -24 l-28 10 26 59 c15 33 31 59 35 60 5 0
17 -10 28 -22z m107 -138 c25 -33 21 -36 -27 -19 -34 12 -37 19 -19 37 17 17
22 15 46 -18z m-198 -47 c0 -8 -84 -112 -88 -109 -2 2 10 31 27 65 22 43 35
59 46 55 8 -4 15 -8 15 -11z m631 -28 c63 -33 85 -110 51 -174 -63 -117 -245
-73 -245 59 0 96 107 159 194 115z m-422 -38 c63 -23 116 -47 118 -52 2 -6
-68 -41 -154 -77 -87 -37 -195 -82 -241 -102 -46 -20 -82 -32 -80 -26 5 15
231 300 237 300 3 -1 57 -20 120 -43z m-599 -252 c39 -20 60 -63 60 -121 0
-41 -5 -51 -39 -85 -34 -34 -44 -39 -86 -39 -42 0 -52 5 -86 39 -38 37 -45 60
-39 116 9 81 112 130 190 90z"/>
</g>
</svg>
